<svg width="36" height="36" viewBox="0 0 36 36" fill="white" xmlns="http://www.w3.org/2000/svg">
    <path id="Vector" d="M0 14.9779C0 23.2408 6.72236 29.9558 14.9779 29.9558C18.7813 29.9558 22.2604 28.5258 24.9066 26.1818L34.4521 35.7273C34.629 35.9042 34.8575 35.9926 35.0934 35.9926C35.3292 35.9926 35.5577 35.9042 35.7346 35.7273C36.0885 35.3735 36.0885 34.8059 35.7346 34.4521L26.1818 24.9066C28.5258 22.2604 29.9558 18.7887 29.9558 14.9779C29.9558 6.71499 23.2334 0 14.9779 0C6.72236 0 0 6.71499 0 14.9779ZM28.1499 14.9779C28.1499 22.2383 22.2383 28.1499 14.9779 28.1499C7.71744 28.1499 1.8059 22.2383 1.8059 14.9779C1.8059 7.71744 7.71744 1.8059 14.9779 1.8059C22.2383 1.8059 28.1499 7.71007 28.1499 14.9779Z" fill="#F3F0ED" />
</svg>